<?xml version="1.0" encoding="utf-8"?>
<!-- Generator: Adobe Illustrator 18.0.0, SVG Export Plug-In . SVG Version: 6.00 Build 0)  -->
<!DOCTYPE svg PUBLIC "-//W3C//DTD SVG 1.1//EN" "http://www.w3.org/Graphics/SVG/1.1/DTD/svg11.dtd">
<svg version="1.1" id="Layer_1" xmlns="http://www.w3.org/2000/svg" xmlns:xlink="http://www.w3.org/1999/xlink" x="0px" y="0px"
	 viewBox="0 0 1400 980" enable-background="new 0 0 1400 980" xml:space="preserve">
<g>
	<g>
		<g>
			<g>
				<rect fill="#5FC4D0" width="1400" height="980"/>
			</g>
		</g>
	</g>
	<circle fill="#77CEDA" cx="700" cy="490" r="483"/>
	<path fill="#37A5AD" d="M1210.8,866.7l-10.9,11.7l-82.1-76.7c13-18,10.8-43.3-5.8-58.9L951.4,592.6c-13.5-12.6-34.7-13.1-48-0.2
		c-14.1,13.7-13.7,36.3,0.5,49.6l-16.5-15.5c-13.5-12.6-34.7-13.1-48-0.2c-14.1,13.7-13.7,36.3,0.5,49.6
		c-13.8-12.9-35.5-12.2-48.4,1.6l0,0c-12.9,13.8-12.2,35.5,1.6,48.4L766.5,701c9.8-7.1,16.1-18.5,16.1-31.5v-104
		c5.5-0.9,10.7-3.3,15.1-7.3l35-31.7c12.2-11,13.1-29.8,2.1-41.9l0,0c-8.6-9.5-22-12.2-33.2-7.6l31.1-28.1
		c12.2-11,13.1-29.8,2.1-41.9l0,0c-8.6-9.5-22-12.2-33.2-7.6l31.1-28.1c12.2-11,13.1-29.8,2.1-41.9l0,0c-8.6-9.5-22-12.2-33.2-7.6
		l31.1-28.1c12.2-11,13.1-29.8,2.1-41.9l0,0c-11-12.2-29.8-13.1-41.9-2.1l-10.3,9.3V74.8c0-21.5-17.4-38.8-38.8-38.8H485.3
		c-21.5,0-38.8,17.4-38.8,38.8v291.5l-10.9-14.7c-11.5-15.5-33.3-18.7-48.8-7.2l0,0c-15.5,11.5-18.7,33.3-7.2,48.8l66.9,90.3v186
		c0,21.5,17.4,38.8,38.8,38.8h37.3l0.1,65.4l-14.6,0l0.4,206.3h225.6l-0.1-56.9c2.1,0.3,4.2,0.4,6.3,0.3l161-2.6l23.6,22
		c16.6,15.5,41.7,16,58.8,2.1l37.4,35h83.7h63H1332L1210.8,866.7z M782.6,410.2c2.2-0.4,4.3-0.9,6.4-1.8l-6.4,5.8V410.2z
		 M782.6,487.9c2.2-0.4,4.3-0.9,6.4-1.8l-6.4,5.8V487.9z M789,330.8l-6.4,5.8v-4C784.8,332.2,786.9,331.6,789,330.8z M738.9,848.1
		c-1.7,0.1-3.3,0.2-5,0.5l-0.1-75.3l-14.5,0l0-22.7l101.3,94.7L738.9,848.1z"/>
	<g>
		<g>
			<path fill="#F4B183" d="M420.7,344.4L420.7,344.4c-15.5,11.5-18.7,33.3-7.2,48.8l88.4,119.3c23,31,66.7,37.5,97.6,14.5l0,0
				l-130-175.3C458,336.2,436.1,333,420.7,344.4z"/>
			
				<rect x="556.4" y="603.6" transform="matrix(1 -1.987783e-003 1.987783e-003 1 -1.3818 1.3028)" fill="#F4B183" width="196.6" height="184.5"/>
			<polygon fill="#1F2D3A" points="768.1,980 767.7,773.3 542,773.7 542.4,980 			"/>
			<g>
				<path fill="#F4F4F4" d="M777.6,36H519.2c-21.5,0-38.8,17.4-38.8,38.8v594.7c0,21.5,17.4,38.8,38.8,38.8h258.4
					c21.5,0,38.8-17.4,38.8-38.8V74.8C816.5,53.4,799.1,36,777.6,36z"/>
				<rect x="495.6" y="93.2" fill="#0D1B28" width="305.6" height="539.9"/>
				<rect x="495.6" y="93.2" fill="#1F2D3A" width="305.6" height="92.5"/>
				<path fill="#E83D50" d="M700.7,558.1H596.1c-11.5,0-20.7,9.3-20.7,20.7s9.3,20.7,20.7,20.7h104.6c11.5,0,20.7-9.3,20.7-20.7
					S712.1,558.1,700.7,558.1z"/>
				<text transform="matrix(1 0 0 1 610.0718 587.9437)" fill="#FFFFFF" font-family="'FranklinGothic-Demi'" font-size="24.1664">ORDER</text>
				<g>
					<circle fill="#1F2D3A" cx="648.4" cy="336" r="133.8"/>
					<g>
						<path fill="#FFFFFF" d="M648.4,450.7c-2.9,0-5.4-1.6-6.7-4.2l-74-157.6c-1.9-0.7-3.5-2.1-4.4-3.9l-6-12.8
							c-0.9-1.8-1-3.9-0.2-5.8c0.7-1.9,2.1-3.5,4-4.3c27.5-12.4,56.9-18.7,87.3-18.7s59.8,6.3,87.3,18.7c1.9,0.8,3.3,2.4,4,4.3
							c0.7,1.9,0.6,4-0.2,5.8l-6,12.8c-0.9,1.9-2.5,3.3-4.4,3.9l-74,157.6C653.8,449.1,651.3,450.7,648.4,450.7z"/>
						<g>
							<g>
								<path fill="#FBCA85" d="M648.4,247.6c-31.1,0-60.6,7-86.9,19.5L645,444.9c1.3,2.8,5.4,2.8,6.7,0l83.6-177.9
									C709,254.6,679.5,247.6,648.4,247.6z"/>
								<path fill="#FDBC52" d="M715.3,298.5c-3.9-2-8.6-0.7-13-1.2c-11-1.3-19.2-13.8-30.2-12.4c-6.2,0.8-10.8,5.9-16.4,8.7
									c-5,2.6-10.9,3.3-16.4,2c-6.8-1.6-12.4-6-18.7-9c-6.3-3-14.3-4.4-19.8-0.1c-3.3,2.5-5.4,6.8-9.3,8c-2.4,0.7-5,0.1-7.5,0.5
									c-2.9,0.5-5.5,2.4-7.3,4.7L645,444.9c1.3,2.8,5.4,2.8,6.7,0L719,301.9C718.1,300.5,716.9,299.3,715.3,298.5z"/>
								<path fill="#F4A449" d="M560.6,270.6l6,12.8c0.9,1.9,3.1,2.7,5,2c23.8-9.4,49.6-14.6,76.7-14.6s53,5.2,76.7,14.6
									c1.9,0.8,4.1-0.1,5-2l6-12.8c0.9-2,0-4.4-2-5.3C708,253.6,679,247,648.4,247s-59.6,6.6-85.8,18.4
									C560.6,266.3,559.7,268.6,560.6,270.6z"/>
								<g>
									<g>
										<path fill="#FBCA85" d="M584.1,261.3c1,0,1.9,0.6,2.3,1.5c0.5,1.2-0.1,2.7-1.4,3.2c-4.1,1.6-8.2,3.5-12,5.5
											c-1.2,0.6-2.7,0.2-3.3-1c-0.6-1.2-0.2-2.7,1-3.3c4-2.1,8.2-4,12.5-5.7C583.5,261.4,583.8,261.3,584.1,261.3z"/>
									</g>
								</g>
								<g>
									<g>
										<path fill="#FBCA85" d="M646.6,250.2c14,0,23.4,1.5,24.2,1.6c1.3,0.2,2.2,1.5,2,2.8c-0.2,1.3-1.5,2.2-2.8,2
											c-0.4-0.1-39.2-6.2-78.2,6.9c-1.3,0.4-2.7-0.3-3.1-1.5c-0.4-1.3,0.3-2.6,1.5-3.1C611.1,251.9,631.5,250.2,646.6,250.2z"/>
									</g>
								</g>
							</g>
							<circle fill="#E83D50" cx="609.4" cy="315.3" r="22.5"/>
							<path fill="#E83D50" d="M617.5,379.9c-1,0-2,0.1-2.9,0.2l18.2,38.7c4.4-4.1,7.2-9.9,7.2-16.4
								C640,390,629.9,379.9,617.5,379.9z"/>
							<path fill="#E83D50" d="M677.8,349.5c-12.4,0-22.5,10.1-22.5,22.5c0,11.6,8.8,21.2,20.2,22.4l18-38.4
								C689.5,352,684,349.5,677.8,349.5z"/>
							<path fill="#FFFAC0" d="M688.1,312.1c-1.5-0.3-2.3-1.8-1.9-3.2c1-3.6,2.8-10.4,1.5-11.6c-0.4-0.4-0.9-0.5-1.5-0.5
								c-1.8,0.3-2.6,2.4-1.6,3.9c0.6,1,0.8,2.2-0.6,3.3c-2.9,2.4-10.7-1.2-10.4-9.4c0.2-8.2,8.7-14.8,19.1-13.8
								c10.4,1,16.2,5.6,17.9,13.1c1.7,7.5-7,12.6-9.2,10.2s1.7-4.1,1-5.6c-0.7-1.5-5.1-3.9-5.3-1.7c-0.2,2.2,5.1,10.7,3.4,11.9
								C699.1,309.7,693.1,313.1,688.1,312.1z"/>
							<path fill="#FFFAC0" d="M610.6,365.7c-0.9-1.2-0.6-2.9,0.6-3.7c3.1-2.1,8.8-6.2,8.6-7.9c-0.1-0.6-0.4-1-0.8-1.3
								c-1.5-0.9-3.5,0.2-3.7,1.9c-0.1,1.1-0.8,2.2-2.6,2.2c-3.8,0-7.4-7.8-1.9-13.9c5.5-6.1,16.2-5.7,23.5,1.8
								c7.3,7.4,8.8,14.7,5.3,21.5c-3.5,6.8-13.5,5.1-13.6,1.9c-0.1-3.3,3.9-2.1,4.3-3.6c0.4-1.6-1.4-6.2-3-4.7
								c-1.6,1.5-3,11.4-5,11.3C620.6,370.9,613.8,369.7,610.6,365.7z"/>
							<g>
								<path fill="#F05123" d="M654.4,277.9c-17,10.2-23,32-13.3,49.4c9.6,17.4,31.3,24,48.9,15.1c0.6-0.3,0.9-1.1,0.5-1.8
									l-34.4-62.3C655.9,277.8,655.1,277.6,654.4,277.9z"/>
								<path fill="#EE2A24" d="M645.6,324.9c-8.9-16.2-4.4-36.2,9.8-47.1c-0.3-0.1-0.7-0.1-1,0.1c-17,10.2-23,32-13.3,49.4
									c9.6,17.4,31.3,24,48.9,15.1c0.3-0.2,0.5-0.5,0.6-0.8C673.9,347.9,654.6,341.1,645.6,324.9z"/>
								<g>
									<path fill="#F36D4E" d="M674.2,311c-5.8,0.3-11.5,1.7-16.9,4c-1.2,0.5-2.5,1.2-3.3,2.3c-1.5,2.2-0.4,5.2,0.8,7.5
										c1.6,2.8,4.1,5.8,7.3,5.5c1.8-0.2,3.3-1.3,4.7-2.4c3.8-2.9,7.9-5.7,12.7-6.4c-1.7,3.2-2.9,6.6-3.6,10.1
										c-0.4,2.1-0.5,4.7,1.3,6c2,1.4,4.6,0,6.4-1.6c1-0.9,2-2,2.6-3.2L674.2,311z"/>
									<path fill="#F36D4E" d="M655.6,283.9c-2.4,2-4.3,4.5-6,7.1c-1.1,1.7-2.3,3.6-2,5.6c0.2,1.9,1.7,3.5,3.5,4.3
										c1.7,0.9,3.7,1.1,5.6,1.4c4.6,0.6,9.2,1.2,13.8,1.8l-12.1-22C657.3,282.6,656.4,283.2,655.6,283.9z"/>
								</g>
							</g>
							<path fill="#8DC63F" d="M639.3,373.6c-0.8-1.1-0.3-2.8,1.1-3.1c2.5-0.7,6-1.4,7.5-0.6c2.4,1.3,14.1,12.6,3.3,26.7
								c-0.4,0.5-1,0.8-1.6,0.8c-2.4,0-8-0.4-8.9-3.8C639.5,389.4,647.2,384.7,639.3,373.6z"/>
							<path fill="#8DC63F" d="M615.2,292.2c-1.1,0.8-2.8,0.3-3.2-1.1c-0.7-2.5-1.5-6-0.6-7.5c1.3-2.4,12.6-14.1,26.7-3.3
								c0.5,0.4,0.8,1,0.8,1.6c0,2.4-0.4,8-3.8,8.9C631,291.9,626.4,284.2,615.2,292.2z"/>
							<path fill="#F05123" d="M658.3,399c0.8-1.2,2.5-1.3,3.3-0.2c1.6,2.1,3.6,5,3.4,6.7c-0.3,2.8-6.5,17.8-23.6,13
								c-0.6-0.2-1.1-0.6-1.3-1.2c-0.9-2.2-2.6-7.6,0.3-9.7C643.7,405.1,650.9,410.5,658.3,399z"/>
						</g>
					</g>
				</g>
				<g>
					<path fill="#E83D50" d="M547.3,102.9c-12.8,0-23.2,10.4-23.2,23.2c0,18.8,23.2,44.4,23.2,44.4s23.2-25.6,23.2-44.4
						C570.5,113.2,560.1,102.9,547.3,102.9z M547.3,136.5c-5.8,0-10.4-4.7-10.4-10.4c0-5.8,4.7-10.4,10.4-10.4
						c5.8,0,10.4,4.7,10.4,10.4C557.7,131.8,553.1,136.5,547.3,136.5z"/>
					<g>
						<circle fill="#FFFFFF" cx="742.1" cy="140.3" r="30.6"/>
						<circle fill="#1F2D3A" cx="742.1" cy="140.3" r="25.8"/>
						<circle fill="#FFFFFF" cx="742.1" cy="140.3" r="6.1"/>
						<rect x="737.3" y="102.4" fill="#FFFFFF" width="9.5" height="4.9"/>
						
							<rect x="758.2" y="109.2" transform="matrix(0.8089 0.588 -0.588 0.8089 211.4361 -427.2812)" fill="#FFFFFF" width="9.5" height="4.9"/>
						
							<rect x="716.5" y="109.2" transform="matrix(-0.8089 0.588 -0.588 -0.8089 1370.2164 -222.1767)" fill="#FFFFFF" width="9.5" height="4.9"/>
						<rect x="741.4" y="116.4" fill="#FFFFFF" width="1.5" height="5.6"/>
						<rect x="760.4" y="139.6" fill="#FFFFFF" width="5.6" height="1.5"/>
						<rect x="741.4" y="158.7" fill="#FFFFFF" width="1.5" height="5.6"/>
						<rect x="718.2" y="139.6" fill="#FFFFFF" width="5.6" height="1.5"/>
					</g>
				</g>
				<g>
					<g>
						<path fill="#1F2D3A" d="M556.8,475.1h-31.1c-7.8,0-14.1,6.3-14.1,14.1v31.1c0,7.8,6.3,14.1,14.1,14.1h31.1
							c7.8,0,14.1-6.3,14.1-14.1v-31.1C570.9,481.5,564.6,475.1,556.8,475.1z"/>
						<g>
							<rect x="530.6" y="525.3" fill="#FFFFFF" width="22.2" height="2.9"/>
							<polygon fill="#E83D50" points="554.2,526.1 529.1,526.1 525.4,485 558,485 							"/>
							<polygon fill="#F16156" points="541.7,485 525.4,485 529.1,526.1 541.7,526.1 							"/>
							<rect x="525.4" y="481.3" fill="#E83D50" width="32.6" height="2.9"/>
							<rect x="522.2" y="483.3" fill="#FFFFFF" width="38.2" height="5"/>
							<circle fill="#FFFFFF" cx="541.9" cy="504.8" r="9.7"/>
						</g>
					</g>
					<g>
						<path fill="#1F2D3A" d="M627.8,475.1h-31.1c-7.8,0-14.1,6.3-14.1,14.1v31.1c0,7.8,6.3,14.1,14.1,14.1h31.1
							c7.8,0,14.1-6.3,14.1-14.1v-31.1C641.9,481.5,635.6,475.1,627.8,475.1z"/>
						<g>
							<path fill="#FDBC52" d="M636.6,511.1H588c-1.3,0-2.4,1.1-2.4,2.4v5.5c0,1.3,1.1,2.4,2.4,2.4h48.7c1.3,0,2.4-1.1,2.4-2.4v-5.5
								C639.1,512.1,638,511.1,636.6,511.1z"/>
							<path fill="#F89640" d="M636.6,517.6H588c-1.3,0-2.4-1.1-2.4-2.4v3.8c0,1.3,1.1,2.4,2.4,2.4h48.7c1.3,0,2.4-1.1,2.4-2.4v-3.8
								C639.1,516.5,638,517.6,636.6,517.6z"/>
							<path fill="#E83D50" d="M637.2,505.4h-50.3c-0.6,0-1.1,0.5-1.1,1.1c0,0.6,0.5,1.1,1.1,1.1h50.3c0.6,0,1.1-0.5,1.1-1.1
								C638.3,505.9,637.8,505.4,637.2,505.4z"/>
							<path fill="#8DC63F" d="M612.6,514.4c0.9-0.2,1.5-0.9,2.4-1.2c1.1-0.4,2.3-0.2,3.3,0.3c1.1,0.4,2.1,1,3.2,1.1
								c0.2,0,0.5,0,0.7-0.1c0.2-0.1,0.3-0.4,0.5-0.6c1-1.8,3.5-2.1,5.5-1.5c2,0.6,3.8,1.7,5.8,2.1c0.5,0.1,1.1,0.1,1.6-0.1
								c0.7-0.4,1-1.2,1.2-2c0.2-0.8,0.4-1.7-0.1-2.4c-0.5-0.8-1.6-0.9-2.6-0.9c-13,0-25.9,0-38.9,0c-2.6,0-5.3,0-7.8,0.4
								c-0.5,0.1-1.1,0.4-1,0.8c0.1,0.2,0.2,0.3,0.4,0.4c0.9,0.7,1.9,1.4,2.8,2.1c0.6,0.4,1.2,0.8,1.9,0.8c0.7,0,1.4-0.6,2.1-0.7
								c1.8-0.4,3.2,1.5,5,1.8c0.3,0.1,0.6,0.1,0.8-0.1c0.3-0.1,0.4-0.4,0.6-0.7c1.2-1.7,3.4-2.3,5.4-2.7c0.3-0.1,0.6-0.1,0.9-0.1
								c1.2,0,2.2,0.9,3.1,1.7C610.3,513.8,611.4,514.6,612.6,514.4z"/>
							<path fill="#603913" d="M637.2,507.5h-50.3c-0.6,0-1.1,0.5-1.1,1.1c0,0.6,0.5,1.1,1.1,1.1h50.3c0.6,0,1.1-0.5,1.1-1.1
								C638.3,508,637.8,507.5,637.2,507.5z"/>
							<path fill="#FDBC52" d="M626,488.2h-27.4c-7.2,0-13.1,5.9-13.1,13.1c0,2.2,1.8,4,4,4h45.6c2.2,0,4-1.8,4-4
								C639.1,494,633.2,488.2,626,488.2z"/>
							<path fill="#F89640" d="M635.1,500.5h-45.6c-1.6,0-2.9-0.9-3.6-2.3c-0.2,1-0.4,2-0.4,3.1c0,2.2,1.8,4,4,4h45.6
								c2.2,0,4-1.8,4-4c0-1.1-0.1-2.1-0.4-3.1C638.1,499.5,636.7,500.5,635.1,500.5z"/>
						</g>
					</g>
					<g>
						<path fill="#1F2D3A" d="M699.4,475.1h-31.1c-7.8,0-14.1,6.3-14.1,14.1v31.1c0,7.8,6.3,14.1,14.1,14.1h31.1
							c7.8,0,14.1-6.3,14.1-14.1v-31.1C713.5,481.5,707.2,475.1,699.4,475.1z"/>
						<g>
							<path fill="#FDBC52" d="M683.9,481.3c-13,0-23.5,10.5-23.5,23.5c0,13,10.5,23.5,23.5,23.5c13,0,23.5-10.5,23.5-23.5
								C707.4,491.8,696.9,481.3,683.9,481.3z M683.9,513.1c-4.6,0-8.3-3.7-8.3-8.3c0-4.6,3.7-8.3,8.3-8.3c4.6,0,8.3,3.7,8.3,8.3
								C692.2,509.4,688.5,513.1,683.9,513.1z"/>
							<path fill="#F593A1" d="M699.9,504.5c0.2-0.7,0.6-1.3,0.9-1.9c0.8-1.7,1.4-3.6,1.2-5.5c-0.2-1.9-1.4-3.7-3.1-4.4
								c-0.8-0.3-1.7-0.4-2.6-0.5c-1.6-0.3-3-1-4.2-2.1c-1.6-1.4-2.8-3.5-4.8-4.3c-1.5-0.7-2.8-0.4-4.3-0.1c-0.1,0-0.1,0-0.2,0
								c-1.4,0.2-2.8,0.3-4.2,0.9c-1.9,0.8-2.4,2.6-3.3,4.2c-1.6,2.6-6.4,1.3-8,3.9c-1,1.7,0.2,4-0.3,5.9c-0.3,1.2-1.2,2.2-1.8,3.2
								c-0.7,1.2-1.2,2.6-1.3,4c-0.1,0.8,0,1.6,0.3,2.4c0.3,0.7,1,1.3,1.4,1.9c1.3,1.8,1.6,4.2,2.7,6.2c0.3,0.6,0.7,1.1,1.3,1.4
								c1.3,0.7,2.9,0,4.4,0.2c1.9,0.2,3.4,1.7,5.1,2.6c1.8,0.9,4,1.1,6,1.2c1.5,0,3.1-0.1,4.1-1.1c0.5-0.5,0.8-1.1,1.3-1.5
								c1.1-0.9,2.6-0.8,4.1-0.8c1.4,0,2.9-0.2,4.1-0.8c1.3-0.6,2.4-1.7,2.9-3C703,512.5,698.8,508.4,699.9,504.5z M683.9,513.1
								c-4.6,0-8.3-3.7-8.3-8.3c0-4.6,3.7-8.3,8.3-8.3c4.6,0,8.3,3.7,8.3,8.3C692.2,509.4,688.5,513.1,683.9,513.1z"/>
						</g>
					</g>
					<g>
						<path fill="#1F2D3A" d="M771.1,475.1H740c-7.8,0-14.1,6.3-14.1,14.1v31.1c0,7.8,6.3,14.1,14.1,14.1h31.1
							c7.8,0,14.1-6.3,14.1-14.1v-31.1C785.2,481.5,778.9,475.1,771.1,475.1z"/>
						<g>
							<path fill="#FFD746" d="M742.9,483.3h-2.9c-0.3,0-0.6,0.3-0.6,0.6v22.9c0,0.3,0.3,0.6,0.6,0.6h2.9c0.3,0,0.6-0.3,0.6-0.6
								v-22.9C743.5,483.6,743.3,483.3,742.9,483.3z"/>
							<path fill="#FFD746" d="M747.4,481.7h-2.9c-0.3,0-0.6,0.3-0.6,0.6v22.9c0,0.3,0.3,0.6,0.6,0.6h2.9c0.3,0,0.6-0.3,0.6-0.6
								v-22.9C748,481.9,747.7,481.7,747.4,481.7z"/>
							<path fill="#FFD746" d="M752.3,486.9h-2.9c-0.3,0-0.6,0.3-0.6,0.6v22.9c0,0.3,0.3,0.6,0.6,0.6h2.9c0.3,0,0.6-0.3,0.6-0.6
								v-22.9C752.8,487.2,752.6,486.9,752.3,486.9z"/>
							<path fill="#FFD746" d="M757.4,484.8h-2.9c-0.3,0-0.6,0.3-0.6,0.6v22.9c0,0.3,0.3,0.6,0.6,0.6h2.9c0.3,0,0.6-0.3,0.6-0.6
								v-22.9C758,485.1,757.7,484.8,757.4,484.8z"/>
							<path fill="#FFD746" d="M762.4,484.1h-2.9c-0.3,0-0.6,0.3-0.6,0.6v22.9c0,0.3,0.3,0.6,0.6,0.6h2.9c0.3,0,0.6-0.3,0.6-0.6
								v-22.9C762.9,484.3,762.7,484.1,762.4,484.1z"/>
							<path fill="#FFD746" d="M767.1,486h-2.9c-0.3,0-0.6,0.3-0.6,0.6v22.9c0,0.3,0.3,0.6,0.6,0.6h2.9c0.3,0,0.6-0.3,0.6-0.6v-22.9
								C767.7,486.3,767.4,486,767.1,486z"/>
							<path fill="#FFD746" d="M772,481.3h-2.9c-0.3,0-0.6,0.3-0.6,0.6v22.9c0,0.3,0.3,0.6,0.6,0.6h2.9c0.3,0,0.6-0.3,0.6-0.6v-22.9
								C772.5,481.5,772.3,481.3,772,481.3z"/>
							<path fill="#E83D50" d="M769,493.6c-1,6.5-6.6,11.5-13.4,11.5c-6.8,0-12.4-5-13.4-11.5h-5.2l3.7,34.7h29.9l3.7-34.7H769z"/>
							<path fill="#F16156" d="M755.3,505c-6.7-0.1-12.1-5-13.2-11.4h-5.2l3.7,34.7h14.7V505z"/>
						</g>
					</g>
				</g>
			</g>
			<path fill="#F6C296" d="M789.6,323.2L789.6,323.2c11,12.2,29.8,13.1,41.9,2.1l35-31.7c12.2-11,13.1-29.8,2.1-41.9l0,0
				c-11-12.2-29.8-13.1-41.9-2.1l-35,31.7C779.6,292.2,778.6,311,789.6,323.2z"/>
			<path fill="#F6C296" d="M789.6,400.8L789.6,400.8c11,12.2,29.8,13.1,41.9,2.1l35-31.7c12.2-11,13.1-29.8,2.1-41.9l0,0
				c-11-12.2-29.8-13.1-41.9-2.1l-35,31.7C779.6,369.9,778.6,388.7,789.6,400.8z"/>
			<path fill="#F6C296" d="M789.6,478.5L789.6,478.5c11,12.2,29.8,13.1,41.9,2.1l35-31.7c12.2-11,13.1-29.8,2.1-41.9l0,0
				c-11-12.2-29.8-13.1-41.9-2.1l-35,31.7C779.6,447.6,778.6,466.3,789.6,478.5z"/>
			<path fill="#F6C296" d="M789.6,556.2L789.6,556.2c11,12.2,29.8,13.1,41.9,2.1l35-31.7c12.2-11,13.1-29.8,2.1-41.9l0,0
				c-11-12.2-29.8-13.1-41.9-2.1l-35,31.7C779.6,525.2,778.6,544,789.6,556.2z"/>
		</g>
		<g>
			<path fill="#F6C187" d="M1151.7,801.6c13-18,10.8-43.3-5.8-58.9L985.2,592.6c-13.5-12.6-34.7-13.1-48-0.2
				c-14.1,13.7-13.7,36.3,0.5,49.6l-16.5-15.5c-13.5-12.6-34.7-13.1-48-0.2c-14.1,13.7-13.7,36.3,0.5,49.6
				c-13.8-12.9-35.5-12.2-48.4,1.6l0,0c-12.9,13.8-12.2,35.5,1.6,48.4L690.6,598.4c-13.8-12.9-35.5-12.2-48.4,1.6v0
				c-12.9,13.8-12.2,35.5,1.6,48.4l210.6,196.9l-81.7,2.8c-20.3,0.7-37.2,16.9-37.5,37.1c-0.3,21.7,17.5,38.9,38.9,38.2l161-2.6
				l23.6,22c16.6,15.5,41.7,16,58.8,2.1l37.4,35h146.7l65.6-70.2L1151.7,801.6z"/>
			<polygon fill="#1F2D3A" points="1365.8,980 1244.6,866.7 1138.7,980 			"/>
		</g>
	</g>
	<text transform="matrix(1 0 0 1 610.0718 587.9437)" fill="#FFFFFF" font-family="'FranklinGothic-Demi'" font-size="24.1664">ORDER</text>
</g>
</svg>
